<?xml version="1.0" standalone="no"?>
<!DOCTYPE svg PUBLIC "-//W3C//DTD SVG 20010904//EN"
 "http://www.w3.org/TR/2001/REC-SVG-20010904/DTD/svg10.dtd">
<svg version="1.0"
    xmlns="http://www.w3.org/2000/svg" width="800.000000pt" height="800.000000pt" viewBox="0 0 800.000000 800.000000" preserveAspectRatio="xMidYMid meet">

    <g transform="translate(0.000000,800.000000) scale(0.100000,-0.100000)" fill="#D1D5DB" stroke="none">
        <path d="M3454 5976 c-28 -13 -69 -40 -90 -59 -23 -20 -55 -38 -77 -42 -157
-30 -262 -250 -242 -509 15 -188 81 -584 96 -569 4 4 14 33 22 63 l14 55 52
-1 c43 -2 52 1 49 15 -2 9 -27 29 -57 45 -61 32 -73 54 -91 162 -8 53 -9 82 0
112 19 74 85 94 140 45 25 -23 33 -42 45 -106 8 -43 15 -96 15 -117 0 -27 8
-48 27 -71 l28 -33 7 46 c10 71 38 162 47 152 5 -5 24 -128 44 -274 l35 -264
34 -28 c97 -80 -77 23 -214 128 -40 30 -48 33 -48 17 0 -10 11 -115 25 -233
14 -118 25 -220 25 -227 0 -7 -19 -13 -47 -15 l-48 -3 48 -28 c142 -83 291
-76 364 19 20 27 28 53 36 122 6 48 15 90 20 93 5 4 46 10 91 13 44 4 91 10
103 13 24 5 36 32 99 216 18 54 42 113 53 130 15 24 22 59 27 135 7 102 7 104
40 129 l34 25 0 114 0 114 28 6 c41 10 144 59 171 81 l25 20 -62 19 -62 19 60
80 60 80 -80 3 c-44 2 -80 5 -80 8 0 2 20 30 45 62 25 31 41 58 36 60 -5 2
-27 -5 -48 -16 -56 -28 -132 -52 -214 -65 l-74 -13 38 -23 c20 -12 74 -35 120
-51 75 -26 80 -29 53 -35 -16 -5 -88 -5 -160 -2 -103 4 -148 11 -209 31 -82
28 -174 72 -127 62 14 -3 70 -8 125 -11 l100 -5 -60 20 c-33 11 -109 31 -170
46 -60 14 -119 29 -130 33 -26 10 164 36 199 27 15 -3 26 -2 26 3 0 5 -35 22
-77 37 -62 23 -95 29 -161 29 -93 0 -92 9 5 45 104 39 199 23 363 -60 117 -59
182 -81 209 -72 20 7 -197 145 -288 184 -69 29 -87 32 -196 35 -109 3 -125 1
-171 -21z m-35 -260 c20 -54 39 -146 28 -136 -3 3 -21 33 -41 68 -21 34 -39
62 -41 62 -3 0 -16 -22 -30 -50 -14 -27 -27 -50 -28 -50 -8 0 20 197 30 214
10 16 60 -49 82 -108z m232 -177 c41 -17 112 -44 159 -60 93 -30 75 -38 -29
-13 -75 19 -191 75 -218 107 -12 15 -13 18 -2 9 9 -6 49 -26 90 -43z"/>
        <path d="M3192 5238 c-7 -7 -12 -25 -12 -41 0 -25 2 -28 15 -17 13 11 21 8 45
-15 l30 -29 0 28 c0 61 -46 106 -78 74z"/>
        <path d="M3070 4666 c-33 -13 -35 -15 -32 -55 2 -23 9 -59 16 -79 l13 -37 17
55 c17 57 31 131 25 129 -2 0 -20 -6 -39 -13z"/>
        <path d="M2870 4559 c-36 -17 -92 -42 -125 -56 -107 -44 -275 -126 -275 -133
0 -4 14 -13 31 -20 48 -20 141 -121 176 -191 33 -66 79 -214 63 -204 -5 3 -23
30 -40 59 -49 87 -114 152 -186 187 -56 28 -75 32 -139 32 -51 -1 -85 -6 -111
-19 -41 -21 -20 28 -232 -524 -76 -196 -81 -206 -118 -228 -22 -12 -45 -26
-52 -31 -11 -6 -11 -21 2 -82 l15 -74 -54 -48 -54 -47 16 -46 15 -45 -38 -47
c-71 -86 -68 -76 -43 -129 19 -40 23 -65 24 -153 0 -88 4 -113 23 -151 32 -65
77 -113 146 -154 91 -54 139 -45 93 17 -49 65 -60 100 -65 199 -6 125 13 193
71 256 50 55 104 81 186 89 57 6 61 5 61 -14 0 -11 2 -27 5 -35 5 -11 -8 -15
-59 -20 -75 -7 -113 -24 -149 -66 -39 -47 -50 -92 -45 -200 3 -85 7 -101 32
-139 38 -56 81 -81 155 -88 59 -7 61 -8 61 -36 0 -82 65 -134 203 -162 83 -17
248 -15 357 6 56 10 141 50 162 76 7 8 15 51 18 95 l5 80 135 35 c161 41 118
45 553 -52 492 -109 772 -166 821 -166 50 0 216 38 856 195 574 141 593 147
624 188 25 33 62 118 219 507 52 129 143 353 201 497 58 144 106 273 106 288
0 32 -41 75 -72 75 -13 0 -90 -11 -173 -25 -228 -38 -709 -113 -900 -141 -252
-36 -278 -42 -320 -77 -45 -37 -53 -55 -189 -414 -243 -646 -356 -928 -382
-950 -44 -40 -73 -36 -454 51 -369 84 -388 89 -355 97 66 15 142 7 366 -36
129 -25 260 -51 292 -57 53 -10 60 -9 78 9 25 24 350 855 365 932 6 28 3 32
-39 52 -46 22 -57 40 -57 90 0 30 -12 42 -72 72 -41 21 -43 25 -53 82 -9 56
-13 61 -51 82 -46 26 -49 30 -201 268 -59 94 -117 182 -128 197 -16 21 -54 37
-205 84 -102 31 -191 59 -197 62 -10 3 -13 -18 -13 -84 0 -99 -19 -151 -73
-206 -81 -81 -246 -96 -385 -37 -144 62 -301 252 -332 404 -6 30 -17 55 -23
55 -7 0 -41 -14 -77 -31z m-251 -933 c28 -46 35 -107 18 -149 -9 -19 -36 -60
-61 -91 -43 -54 -46 -60 -46 -117 0 -69 -11 -73 -47 -19 -16 23 -23 48 -23 80
0 41 7 56 50 115 60 81 65 97 56 183 l-7 66 21 -19 c11 -10 29 -32 39 -49z
m186 -35 c25 -36 30 -52 29 -97 -2 -56 -14 -80 -80 -162 -19 -22 -28 -48 -32
-82 -2 -28 -7 -50 -11 -50 -3 0 -16 15 -28 33 -28 40 -30 101 -5 138 9 14 32
48 50 75 32 47 34 52 29 122 -6 85 2 89 48 23z m2902 -141 c49 -45 33 -151
-37 -239 -91 -115 -212 -147 -246 -65 -19 45 -11 92 29 167 63 121 196 192
254 137z m-1552 -170 l59 -60 68 0 68 0 70 -66 c38 -37 70 -72 70 -79 0 -7
-13 -15 -30 -17 -25 -4 -39 4 -84 44 -52 46 -56 48 -113 47 -50 -1 -54 -2 -25
-9 18 -4 42 -16 54 -26 52 -47 198 -215 198 -229 0 -8 -12 -18 -26 -21 -23 -6
-39 6 -138 105 l-111 111 -115 -1 c-91 -1 -106 -3 -70 -10 25 -4 68 -8 95 -9
l50 -1 118 -136 c64 -75 117 -144 117 -154 0 -12 -10 -21 -26 -25 -28 -7 -60
22 -217 194 l-48 52 -114 0 c-103 0 -115 -2 -125 -19 -20 -38 -13 -41 83 -41
l93 0 93 -102 c51 -56 91 -108 89 -117 -2 -10 -16 -17 -37 -19 -31 -3 -40 3
-105 72 l-71 76 -103 0 -103 0 -77 -65 -77 -65 -75 0 c-41 0 -94 7 -117 15
-39 13 -56 12 -250 -20 -114 -19 -211 -35 -216 -35 -4 0 -6 66 -5 148 l3 147
255 5 255 5 205 104 c198 100 207 104 266 102 l61 -2 18 81 c10 44 21 80 24
80 4 0 33 -27 66 -60z m-1266 -146 c51 -15 101 -51 101 -74 0 -6 -11 -22 -25
-36 l-25 -25 0 -299 c0 -164 -3 -306 -6 -314 -4 -9 -35 -24 -73 -35 -65 -19
-201 -38 -201 -27 0 3 28 13 62 22 35 10 76 30 95 47 l33 29 0 275 0 275 -52
-9 c-79 -12 -305 -8 -368 7 -108 25 -170 72 -149 112 17 32 92 58 191 68 123
11 349 3 417 -16z m-629 -339 c0 -34 -1 -35 -40 -35 l-40 0 0 -60 0 -60 40 0
40 0 0 -41 0 -42 -51 5 c-80 8 -93 28 -93 139 0 84 2 93 23 110 16 13 39 19
72 19 l49 0 0 -35z"/>
        <path d="M2445 3109 c-62 -15 -95 -30 -95 -44 0 -18 27 -23 69 -14 102 22 389
19 451 -6 9 -3 24 1 35 9 18 13 16 15 -26 37 -40 21 -59 23 -219 25 -96 2
-193 -1 -215 -7z"/>
        <path d="M2540 3034 c-25 -2 -56 -7 -70 -11 l-25 -6 25 -7 c30 -10 273 -10
315 -1 17 3 25 10 19 13 -14 9 -204 17 -264 12z"/>
        <path d="M6565 2709 c-16 -5 -131 -36 -255 -69 -124 -32 -328 -86 -455 -120
-126 -34 -365 -97 -530 -141 -343 -92 -894 -241 -1100 -299 -77 -21 -223 -61
-325 -89 -102 -27 -262 -72 -356 -99 l-171 -48 -194 58 c-107 32 -228 69 -269
82 -41 13 -167 52 -280 86 -113 34 -272 82 -355 107 -505 153 -640 193 -652
193 -10 0 -13 -19 -13 -74 l0 -73 158 -47 c86 -26 258 -79 382 -118 124 -38
275 -85 335 -103 118 -35 413 -126 665 -205 212 -66 204 -65 312 -35 203 57
759 211 1038 286 324 88 335 91 660 178 124 33 284 75 355 95 72 19 182 48
245 65 195 51 793 211 828 222 l32 11 0 74 c0 79 -1 80 -55 63z"/>
        <path d="M3515 2465 c-38 -11 -121 -34 -182 -50 -62 -16 -109 -32 -105 -36 4
-4 106 -40 227 -79 305 -100 365 -121 372 -132 9 -16 -45 -1 -348 98 -158 52
-290 94 -293 94 -3 0 -6 -21 -6 -48 l0 -47 318 -108 c175 -59 327 -107 338
-107 12 0 81 17 155 39 74 21 157 44 186 52 51 12 52 14 59 54 12 84 11 86
-111 123 -60 18 -182 56 -270 84 -293 94 -260 88 -340 63z m299 -81 c26 -10
18 -21 -16 -27 -36 -5 -72 8 -63 24 7 10 55 12 79 3z m-84 -34 c11 -7 9 -11
-14 -20 -35 -13 -125 7 -91 21 28 11 87 11 105 -1z m178 4 c32 -9 27 -21 -10
-27 -43 -6 -89 10 -68 23 17 11 45 12 78 4z m-299 -25 c24 -9 29 -14 19 -20
-17 -12 -79 -11 -98 1 -12 7 -10 11 10 19 33 13 32 13 69 0z m202 -26 c-27
-11 -40 -12 -70 -2 l-36 13 40 11 c28 9 49 9 70 2 l30 -11 -34 -13z m204 17
c19 -7 18 -9 -8 -19 -22 -8 -40 -8 -70 0 -39 11 -40 13 -17 20 33 9 71 9 95
-1z m-297 -27 c36 -9 6 -23 -50 -23 -72 0 -75 28 -3 29 17 0 41 -2 53 -6z
m211 -2 c28 -18 -53 -36 -94 -21 -23 9 -26 13 -15 20 19 12 91 13 109 1z m190
-7 c9 -9 -22 -24 -49 -23 -14 0 -34 4 -45 9 -19 8 -19 8 5 19 24 10 77 7 89
-5z m-305 -20 c9 -3 16 -10 16 -15 0 -15 -64 -21 -95 -8 l-30 12 25 7 c32 10
64 12 84 4z m192 -4 c31 -12 28 -17 -13 -29 -19 -6 -39 -4 -59 4 l-29 13 25
10 c33 14 43 14 76 2z m-89 -32 l28 -11 -42 -10 c-43 -10 -93 -3 -93 12 0 20
67 26 107 9z"/>
        <path d="M2963 2213 c-46 -14 -83 -29 -83 -33 0 -9 368 -140 393 -140 10 0 58
12 108 27 61 18 85 29 75 35 -29 16 -380 138 -395 137 -9 0 -53 -12 -98 -26z
m87 -8 c-48 -19 -86 -18 -45 0 17 8 41 14 55 14 22 0 21 -2 -10 -14z m320
-104 c0 -10 -84 -41 -112 -41 -32 0 -19 18 25 33 48 18 87 21 87 8z"/>
        <path d="M2856 2143 c-3 -4 -6 -16 -6 -28 0 -19 23 -30 203 -93 111 -40 210
-72 219 -72 36 0 209 62 215 76 13 34 -14 36 -109 9 l-94 -27 -69 20 c-39 11
-134 43 -212 70 -77 28 -144 48 -147 45z"/>
    </g>
</svg>
